<svg width="293" height="293" viewBox="0 0 293 293" fill="none" xmlns="http://www.w3.org/2000/svg">
    <rect width="293" height="293" rx="74" fill="url(#paint0_linear_102_43)"/>
    <path d="M30 137.141C30 129.135 36.4803 122.644 44.4742 122.644H63.7732V185.463H44.4742C36.4803 185.463 30 178.973 30 170.966V137.141Z" fill="#FFC8C8"/>
    <path d="M230.227 122.644H249.526C257.52 122.644 264 129.135 264 137.141V170.966C264 178.973 257.52 185.463 249.526 185.463H230.227V122.644Z" fill="#FFC8C8"/>
    <path d="M162.68 41.7047C162.68 47.2647 159.796 52.1498 155.443 54.9406C153.006 56.5034 150.109 57.4094 147 57.4094C143.891 57.4094 140.994 56.5034 138.557 54.9406C134.204 52.1498 131.32 47.2647 131.32 41.7047C131.32 33.0312 138.34 26 147 26C155.66 26 162.68 33.0312 162.68 41.7047Z" fill="#FFC8C8"/>
    <path d="M155.443 94.8591V54.9406C153.006 56.5034 150.109 57.4094 147 57.4094C143.891 57.4094 140.994 56.5034 138.557 54.9406V94.8591H155.443Z" fill="#FFC8C8"/>
    <path fill-rule="evenodd" clip-rule="evenodd" d="M89.1031 103.315H204.897C214.223 103.315 221.784 110.888 221.784 120.228V189.087C221.784 198.428 214.223 206 204.897 206H89.1031C79.7769 206 72.2165 198.428 72.2165 189.087V120.228C72.2165 110.888 79.7769 103.315 89.1031 103.315ZM108.402 168.55C116.396 168.55 122.876 162.06 122.876 154.054C122.876 146.047 116.396 139.557 108.402 139.557C100.408 139.557 93.9278 146.047 93.9278 154.054C93.9278 162.06 100.408 168.55 108.402 168.55ZM171.124 154.054C171.124 162.06 177.604 168.55 185.598 168.55V161.302C186.251 155.843 188.127 154.609 192.835 154.054H200.072C200.072 146.047 193.592 139.557 185.598 139.557C177.604 139.557 171.124 146.047 171.124 154.054Z" fill="#FFC8C8"/>
    <defs>
        <linearGradient id="paint0_linear_102_43" x1="146.5" y1="-5.73488e-07" x2="275.5" y2="216.5" gradientUnits="userSpaceOnUse">
            <stop stop-color="#EC1414"/>
            <stop offset="1" stop-color="#7D50DD"/>
        </linearGradient>
    </defs>
</svg>
